<svg width="16" height="16" viewBox="0 0 16 16" fill="none" xmlns="http://www.w3.org/2000/svg">
<path fill-rule="evenodd" clip-rule="evenodd" d="M11.5684 10.449L15.7656 14.6328C15.8379 14.7053 15.8936 14.7885 15.9326 14.8772C16.0615 15.1704 16.0049 15.5251 15.7646 15.7656C15.6074 15.9221 15.4014 16 15.1953 16C14.9902 16 14.7842 15.9221 14.627 15.7656L10.4238 11.5753C9.33008 12.415 7.96484 12.9205 6.48047 12.9205C2.90723 12.9205 0 10.0223 0 6.46021C0 2.89819 2.90723 0 6.48047 0C10.0537 0 12.9609 2.89819 12.9609 6.46021C12.9609 7.9657 12.4375 9.34924 11.5684 10.449ZM6.48145 1.60254C3.79492 1.60254 1.6084 3.78186 1.6084 6.46033C1.6084 9.13867 3.79492 11.318 6.48145 11.318C9.16797 11.318 11.3545 9.13867 11.3545 6.46033C11.3545 3.78186 9.16797 1.60254 6.48145 1.60254Z" fill="#20389C"/>
</svg>
