<svg width="50" height="50" viewBox="0 0 50 50" fill="none" xmlns="http://www.w3.org/2000/svg">
<path d="M25.1161 2C20.5524 2 12.1374 3.18069 7.85197 5.67266C2.20975 25.6763 9.88314 39.2792 25.1161 47C40.3491 39.2792 48.0225 25.609 42.3801 5.67278C38.0904 3.18069 29.6796 2 25.1161 2Z" fill="#9C824A" stroke="#9C824A" stroke-width="0.793" stroke-miterlimit="282"/>
<path d="M25.1161 3.28628C20.6326 3.28628 15.5844 3.85976 8.97282 6.55834C4.05108 24.0194 9.76085 38.0145 25.1161 45.6423C40.4713 38.0145 46.1768 24.0193 41.255 6.55834C34.6435 3.85976 29.5996 3.28628 25.1161 3.28628Z" fill="#023474" stroke="#023474" stroke-width="0.793" stroke-miterlimit="282"/>
<path d="M25.095 3.26914C20.6326 3.26914 15.8414 3.93108 11.518 5.56723C7.03449 23.4458 10.3424 36.5004 25.1203 45.6295L25.095 3.26914ZM25.1203 45.6295C39.8981 36.5004 43.2019 23.4458 38.7183 5.56723C34.395 3.93108 29.608 3.26914 25.1456 3.26914L25.1203 45.6295Z" fill="white" stroke="white" stroke-width="0.793" stroke-miterlimit="282"/>
<path d="M25.1203 3.26519C20.6326 3.26519 16.0901 3.94399 12.3988 5.22999C7.75509 23.9687 11.4843 36.6228 25.1245 45.2711L25.1203 3.26519Z" fill="#EF0107" stroke="#EF0107" stroke-width="0.793" stroke-miterlimit="282"/>
<path d="M25.1288 3.26519C29.6164 3.26519 34.1591 3.94399 37.8545 5.22999C42.4982 23.9687 38.7689 36.6228 25.1246 45.2711L25.1288 3.26519Z" fill="#DB0007" stroke="#DB0007" stroke-width="0.793" stroke-miterlimit="282"/>
<path d="M19.3221 31.5417C17.3416 32.8997 15.7657 33.3887 13.9368 33.8736L12.8328 32.1575C14.5142 31.3058 16.2545 30.1208 18.0075 28.4048C18.155 30.0701 18.9302 31.2507 19.3221 31.5417Z" fill="white"/>
<path d="M19.0523 31.47C17.173 32.7602 14.5561 33.6584 11.5601 34.0969L10.9491 33.1693C13.5153 32.2077 15.993 30.7742 17.9146 28.7587C18.2054 30.0489 18.6478 30.905 19.0523 31.47Z" fill="#9C824A"/>
<path d="M14.0464 23.5893C14.0464 24.3104 13.465 24.8923 12.7444 24.8923C12.0238 24.8923 11.4381 24.3104 11.4381 23.5893C11.4381 22.8683 12.0238 22.2865 12.7444 22.2865C13.465 22.2865 14.0464 22.8683 14.0464 23.5893Z" fill="white"/>
<path d="M13.9072 21.0213V25.9379H17.7797C18.0325 24.2892 18.968 22.5393 21.0875 21.0213H13.9072Z" fill="white"/>
<path d="M14.0633 25.9379C13.1994 25.9505 12.4873 24.8668 12.4746 23.5091C12.4662 22.1513 13.1573 21.0381 14.0254 21.0213C14.0338 21.0213 14.0423 21.0213 14.055 21.0213" fill="white"/>
<path d="M13.4986 23.5893C13.4986 24.1459 13.094 24.5929 12.5968 24.5929C12.0995 24.5929 11.695 24.146 11.695 23.5893C11.695 23.0327 12.0995 22.5857 12.5968 22.5857C13.094 22.5856 13.4986 23.0327 13.4986 23.5893Z" fill="#9C824A"/>
<path d="M14.0127 21.2786V25.6975H17.8557C18.1591 24.2302 18.905 22.67 20.7674 21.2786H14.0127Z" fill="#9C824A"/>
<path d="M14.1559 25.6975C13.3425 25.7145 12.6768 24.7362 12.6642 23.5175C12.6558 22.299 13.3089 21.2953 14.1221 21.2786C14.1306 21.2786 14.139 21.2786 14.1474 21.2786" fill="#9C824A"/>
<path d="M32.4691 27.0889C32.4691 31.1918 29.1487 34.5143 25.0486 34.5143C20.9528 34.5143 17.6281 31.1918 17.6281 27.0889C17.6281 22.9861 20.9528 19.6634 25.0486 19.6634C29.1487 19.6634 32.4691 22.9861 32.4691 27.0889Z" fill="white"/>
<path d="M32.0817 27.0889C32.0817 30.9767 28.9338 34.1263 25.0487 34.1263C21.1678 34.1263 18.0201 30.9767 18.0201 27.0889C18.0201 23.2055 21.1678 20.0514 25.0487 20.0514C28.9338 20.0513 32.0817 23.2012 32.0817 27.0889Z" fill="#9C824A"/>
<path d="M30.9143 27.0891C30.9143 30.3317 28.289 32.9588 25.0486 32.9588C21.8124 32.9588 19.1872 30.3317 19.1872 27.0891C19.1872 23.8465 21.8124 21.2195 25.0486 21.2195C28.289 21.2195 30.9143 23.8465 30.9143 27.0891Z" fill="white"/>
<path d="M30.5267 27.089C30.5267 30.1165 28.0742 32.5664 25.0486 32.5664C22.0273 32.5664 19.5749 30.1165 19.5749 27.089C19.5749 24.0615 22.0273 21.6117 25.0486 21.6117C28.0742 21.6116 30.5267 24.0615 30.5267 27.089Z" fill="#9C824A"/>
<path d="M27.3324 27.0891C27.3367 28.3499 26.3128 29.3746 25.0528 29.3787C23.7887 29.3787 22.7646 28.3542 22.7646 27.0933V27.0891C22.7646 25.8282 23.7845 24.8037 25.0485 24.8037C26.3084 24.7995 27.3323 25.8242 27.3323 27.0849C27.3324 27.0891 27.3324 27.0891 27.3324 27.0891Z" fill="white"/>
<path d="M27.0629 27.089C27.0629 28.2024 26.1652 29.1046 25.0529 29.1046C23.9405 29.1046 23.0387 28.2066 23.0344 27.0934V27.0891C23.0344 25.976 23.9362 25.0735 25.0486 25.0735C26.161 25.0735 27.0629 25.9717 27.0629 27.0848V27.089Z" fill="#9C824A"/>
<path d="M26.0853 27.0888C26.0853 27.6581 25.6217 28.1218 25.0487 28.126C24.4799 28.126 24.0163 27.6623 24.0163 27.0888C24.0163 26.5155 24.4799 26.0559 25.0487 26.0517C25.6216 26.0516 26.0853 26.5155 26.0853 27.0888Z" fill="white"/>
<path d="M25.7988 27.0891C25.7988 27.5023 25.4658 27.8396 25.0487 27.8396C24.6358 27.8396 24.2987 27.5064 24.2987 27.0891C24.2987 26.676 24.6358 26.3387 25.0487 26.3387C25.4616 26.3386 25.7988 26.6716 25.7988 27.0891Z" fill="#9C824A"/>
<path d="M25.8198 21.4851H24.2607V25.124H25.8198V21.4851Z" fill="white"/>
<path d="M25.5795 20.9622H24.505V25.5878H25.5795V20.9622Z" fill="#9C824A"/>
<path d="M29.3931 23.5385L30.2443 24.8456L27.1935 26.8276L26.3466 25.5204L29.3931 23.5385Z" fill="white"/>
<path d="M29.962 23.4585L30.5477 24.3609L26.671 26.8824L26.0853 25.9759L29.962 23.4585Z" fill="#9C824A"/>
<path d="M22.8617 27.3841L23.696 28.6997L20.6241 30.6479L19.7898 29.328L22.8617 27.3841Z" fill="white"/>
<path d="M23.3842 27.3081L23.9615 28.2189L20.0595 30.694L19.4821 29.7832L23.3842 27.3081Z" fill="#9C824A"/>
<path d="M25.8198 29.1762H24.2607V32.8149H25.8198V29.1762Z" fill="white"/>
<path d="M25.5795 28.6577H24.505V33.279H25.5795V28.6577Z" fill="#9C824A"/>
<path d="M23.5275 28.7882C23.7383 28.9652 23.9699 29.1255 24.2607 29.2478L24.2522 32.4946C22.7816 32.3048 21.6692 31.5796 20.8264 30.5466L23.5318 28.7882" fill="#EF0107"/>
<path d="M23.5275 28.7882C23.7383 28.9652 23.9699 29.1255 24.2607 29.2478L24.2522 32.4946C22.7816 32.3048 21.6692 31.5796 20.8264 30.5466L23.5318 28.7882" stroke="#EF0107" stroke-width="0.3115" stroke-miterlimit="282"/>
<path d="M26.5656 28.8009C26.3507 28.9738 26.123 29.1383 25.8324 29.2563L25.8365 32.5032C27.3072 32.3134 28.4197 31.5882 29.2625 30.5551L26.5614 28.801" fill="#DB0007"/>
<path d="M26.5656 28.8009C26.3507 28.9738 26.123 29.1383 25.8324 29.2563L25.8365 32.5032C27.3072 32.3134 28.4197 31.5882 29.2625 30.5551L26.5614 28.801" stroke="#DB0007" stroke-width="0.3115" stroke-miterlimit="282"/>
<path d="M27.303 27.439L30.5224 27.051C30.5476 27.8563 30.3538 28.5648 30.0798 29.2437L27.2945 27.439" fill="#DB0007"/>
<path d="M27.3073 27.4263C27.3199 27.3758 27.3157 27.3295 27.3368 27.1819L30.5141 26.7687C30.5267 26.9163 30.5183 26.971 30.5141 27.0384L27.3073 27.4263Z" fill="white" stroke="white" stroke-width="0.3115" stroke-miterlimit="282"/>
<path d="M32.01 24.7487H36.1775C36.0468 25.2419 35.9203 25.7437 35.3219 25.9673C34.3654 26.3259 32.3808 26.6715 32.3808 26.6715C32.3428 26.1275 32.2206 25.3894 32.01 24.7487Z" fill="white"/>
<path d="M29.1067 20.9497L39.9951 20.9622L39.6118 24.9427L32.1743 25.3307C31.7739 23.5512 30.4212 21.852 29.1067 20.9497Z" fill="white"/>
<path d="M29.4942 21.2322L43.3957 21.2448L42.8647 24.4875L32.0773 25.0189C31.6516 23.408 30.6784 22.2316 29.4942 21.2322Z" fill="#9C824A"/>
<path d="M32.01 24.7487H35.8486C35.7223 25.1871 35.6337 25.5877 35.0691 25.7859C34.1716 26.1063 32.3639 26.3594 32.3639 26.3594C32.288 25.8324 32.1784 25.2968 32.01 24.7487Z" fill="#9C824A"/>
<path d="M27.7961 15.1688C27.7961 15.3459 27.7582 15.8308 27.7372 15.9657H29.8947C29.7639 15.3921 29.7049 14.5953 29.6881 13.9797C29.6881 14.0218 29.6502 12.7441 29.6502 12.7441C29.6502 12.6556 29.6881 12.5207 29.7429 12.4785C29.8188 12.3899 29.8947 12.3899 29.9874 12.3899C30.0801 12.3478 30.2487 12.3478 30.2697 12.6978L30.3245 14.0218C30.3455 14.6416 30.3455 15.4808 30.2697 15.9657H32.3472C32.3302 15.7886 32.2713 15.3458 32.2544 15.2151C32.5156 15.7886 33.0803 16.0963 33.8304 16.0963C34.2771 16.0963 34.6183 15.9233 34.8796 15.7463C34.8796 15.7885 34.9892 15.9657 34.9892 15.9657H38.8491C38.6805 15.3921 38.5709 14.5953 38.512 13.9797L37.9684 9.65338L35.9836 9.2992C36.1523 9.87268 36.2661 10.7118 36.3376 11.2853L36.6409 14.0682C36.6958 14.5532 36.7338 15.0845 36.7338 15.6579V15.7L36.6578 15.5229C36.5062 15.1687 36.4344 14.7302 36.3754 14.0681L36.3038 13.1826C36.1901 11.77 35.4232 11.1543 33.7334 11.1543C33.4553 11.1543 32.7431 11.1964 32.3092 11.3314L32.4229 12.9169L32.8739 12.6554C33.2489 12.432 33.527 12.3434 33.864 12.3434C34.1296 12.3434 34.2981 12.4321 34.3739 12.6091C34.0538 12.6554 33.6996 12.744 33.3037 12.9169C32.7053 13.1825 32.3302 13.583 32.1617 14.0216V13.9794L32.1027 12.5204C32.0691 11.5928 31.4665 10.9771 30.5477 10.9771C30.1391 10.9771 29.7639 11.1079 29.4269 11.3313C29.4059 11.2849 29.389 11.2426 29.3679 11.1963L29.292 11.0192L27.5685 10.9306C27.6444 11.2426 27.7582 12.124 27.7751 12.4319C27.6822 11.9933 27.4379 11.5084 26.9869 11.1542C26.6331 10.9307 26.1822 10.8 25.7145 10.8C25.0781 10.8 24.4207 11.0656 23.9909 11.5084C23.5401 11.9468 23.3166 12.5667 23.2956 13.271C23.1271 13.0938 22.9038 12.9209 22.6425 12.8325L21.8544 12.4319H21.8166C21.6312 12.3432 21.6101 12.301 21.6101 12.2589C21.6312 12.1703 21.8166 12.0817 22.061 12.0817C22.3981 12.0817 22.8659 12.2589 23.2409 12.4782L23.2788 11.0656C22.9964 10.9306 22.6046 10.8463 22.0399 10.8463C21.7407 10.8463 21.1803 10.8884 20.6914 11.1541C20.5607 11.2426 20.447 11.3312 20.3375 11.4198L20.3544 11.0191C19.9035 10.9348 19.4189 10.9347 18.8204 11.5082C18.7994 11.4618 18.7614 11.2425 18.7236 11.1541L16.8695 11.2426C17.0001 11.7698 17.0212 12.5203 16.9833 13.1824L16.9454 13.8907V13.9793C16.9243 14.3335 16.9075 14.7298 16.8695 15.084C16.7178 14.5948 16.5535 13.9329 16.4186 13.4058L15.5001 9.25669L12.879 9.65302C12.8959 9.69517 12.9338 9.83017 12.9549 9.96078C12.9719 10.1379 12.9719 10.4921 12.7274 11.2426C12.2976 12.4319 11.6992 14.2449 11.1177 15.5225C11.0419 15.6996 10.8902 15.9653 10.8902 15.9653H12.9339C12.9719 15.6574 13.1025 15.1262 13.2331 14.7297C13.5154 14.7297 14.2444 14.7297 14.5814 14.6833C14.6573 14.9953 14.7332 15.3916 14.7543 15.6573L14.788 15.9651H18.8754C18.7827 15.3031 18.8206 14.4217 18.8544 13.9327C18.8923 13.3592 19.006 12.9628 19.2505 12.7435C19.4358 12.5201 19.6423 12.4779 19.7941 12.4779C19.773 13.2706 20.2787 13.6249 20.7296 13.8441L21.5343 14.2446C21.8167 14.4217 21.8167 14.4639 21.8167 14.5524C21.7998 14.6832 21.5722 14.7296 21.3658 14.7296C20.936 14.7296 20.3545 14.4639 19.7182 13.7598L19.6803 15.6108C20.186 15.8764 20.8223 16.0072 21.387 16.0072C22.3225 16.0072 23.3169 15.5686 23.5782 14.7295C24.0459 15.6107 24.9645 16.0072 25.8663 16.0072C26.671 16.0079 27.2693 15.7463 27.7961 15.1688ZM13.7219 13.3598C13.8357 13.052 13.9283 12.7863 14.0969 12.3014C14.2106 12.7863 14.2653 13.0942 14.3202 13.3176C14.0969 13.3598 13.9831 13.3598 13.7219 13.3598ZM25.1919 12.8749C25.1919 12.2592 25.4153 11.9936 25.6387 11.9936C25.7146 11.9936 25.8831 11.9472 25.9588 12.2592C25.9967 12.3899 26.0136 12.4785 26.0136 12.5207C26.0136 12.6978 25.9209 12.7441 25.8072 12.7441V12.7863C25.8072 12.7863 25.4911 12.8749 25.1919 13.0097C25.1919 12.9634 25.1919 12.9213 25.1919 12.8749ZM27.3283 14.1567C26.9321 14.5067 26.6498 14.7302 26.1822 14.7302C25.8072 14.6838 25.5837 14.4645 25.4531 14.1567C25.8451 14.0218 27.362 13.4483 27.796 13.2712C27.796 13.6254 27.813 14.0217 27.813 14.0217V14.7723L27.3283 14.1567ZM34.3148 14.7725C33.961 14.7725 33.885 14.5067 33.8681 14.3339C33.885 14.1567 33.9397 13.8911 34.5043 13.7141C34.5213 13.9334 34.5422 14.1104 34.5422 14.1104V14.2874C34.5592 14.4223 34.5592 14.553 34.5759 14.6838C34.5044 14.7302 34.4118 14.7302 34.3148 14.7725Z" fill="#9C824A"/>
<path d="M22.9586 11.285C22.7732 11.2428 22.4909 11.1542 22.04 11.1542C21.6861 11.1542 21.2183 11.2428 20.8601 11.42C20.4471 11.6856 20.1479 12.0356 20.131 12.4362C20.0932 13.0518 20.4134 13.3175 20.8811 13.5368C21.1971 13.7139 21.5005 13.8909 21.686 13.9795C21.9303 14.1102 22.1537 14.2451 22.1368 14.553C22.1158 14.8609 21.8334 15.0843 21.3657 15.0843C20.9738 15.0843 20.4134 14.8187 20.0173 14.4644L20.0004 15.3921C20.3375 15.5692 20.8811 15.6577 21.3868 15.6577C22.2464 15.6577 23.3167 15.2614 23.3335 14.2873C23.3545 13.5368 22.8279 13.271 22.5119 13.0982C22.1917 12.9633 21.8713 12.7862 21.724 12.744C21.5722 12.6554 21.273 12.5669 21.2941 12.2126C21.3279 11.9049 21.6861 11.7699 22.061 11.7699C22.3771 11.7699 22.6973 11.8585 22.9417 11.9933" fill="white"/>
<path d="M15.2599 9.65308L13.271 9.91868C13.3089 10.1844 13.2331 10.7115 13.0266 11.3313C12.6179 12.5204 11.9436 14.5063 11.4168 15.6574H12.6558C12.7274 15.2569 12.8201 14.9069 13.0097 14.422L14.847 14.3756C14.9186 14.7298 15.0535 15.3032 15.0704 15.6574H16.739C16.5326 15.1684 16.2713 14.1563 16.1029 13.4479L15.2599 9.65308ZM13.271 13.6673L14.1727 11.0656L14.7164 13.6252" fill="white"/>
<path d="M20.0174 11.2852L19.9795 12.1707C19.6803 12.1244 19.3054 12.2129 19.0062 12.5207C18.7448 12.7864 18.5763 13.1828 18.5385 13.8912C18.5005 14.4647 18.4836 15.1267 18.5173 15.6579H17.114C17.2067 15.1267 17.2447 14.511 17.2615 13.9334L17.2994 13.2292C17.3372 12.6557 17.3372 12.0823 17.2446 11.5511L18.4835 11.5089C18.5383 11.6861 18.5762 11.9938 18.5552 12.3016C19.0988 11.4622 19.6255 11.2852 20.0174 11.2852Z" fill="white"/>
<path d="M37.6902 9.91872L36.4133 9.69526C36.544 10.273 36.5819 10.6694 36.6578 11.2427L36.9571 14.0216C37.016 14.595 37.0709 15.1264 37.0539 15.6576H38.4403C38.3055 15.1264 38.2507 14.595 38.1959 14.0216" fill="white"/>
<path d="M31.9721 15.6578C31.9004 15.1266 31.8624 14.5953 31.8412 14.0218L31.7865 12.5671C31.7486 11.7701 31.2978 11.3316 30.5476 11.3316C30.1389 11.3316 29.65 11.4624 29.2372 11.9936C29.2203 11.8587 29.1613 11.5087 29.0855 11.3316L27.9647 11.2852C28.0573 11.8165 28.0953 12.3436 28.112 12.9171L28.1332 14.0218C28.15 14.5953 28.1332 15.1266 28.0953 15.6578H29.4985C29.4268 15.1266 29.3889 14.5953 29.3678 14.0218L29.3299 12.7864C29.313 12.3436 29.6501 12.0357 29.9873 12.0357C30.3791 12.0357 30.5688 12.3013 30.5857 12.6978L30.6446 14.0218C30.6616 14.5953 30.6616 15.1266 30.6236 15.6578" fill="white"/>
<path d="M36.3586 15.6577C36.1901 15.2149 36.0974 14.6837 36.0594 14.1102L35.9834 13.2288C35.9075 12.1705 35.4611 11.4621 33.7333 11.4621C33.4341 11.4621 33.0042 11.5085 32.6504 11.5928L32.7052 12.3898C33.059 12.1705 33.4173 11.9934 33.8682 11.9934C34.3358 11.9934 34.7278 12.2127 34.7658 12.8747C34.3148 12.9211 33.9019 13.0054 33.4342 13.2288C32.9118 13.4481 32.3681 13.8909 32.4228 14.595C32.4775 15.3919 33.0801 15.7461 33.8303 15.7461C34.4117 15.7461 34.8037 15.4805 35.027 15.2149C35.0649 15.3919 35.1239 15.5227 35.1786 15.6577H36.3586ZM34.3148 15.0842C33.9018 15.0842 33.5649 14.8607 33.5479 14.3758C33.5479 13.8909 33.8471 13.4946 34.8037 13.3596L34.8585 14.1102C34.8795 14.3758 34.8795 14.553 34.9174 14.7723C34.7828 14.9493 34.5593 15.0379 34.3148 15.0842Z" fill="white"/>
<path d="M26.8016 11.4199C26.4815 11.1965 26.1064 11.1079 25.7146 11.1079C24.7959 11.1079 23.5781 11.7699 23.616 13.4481C23.6328 15.1686 24.9476 15.6998 25.8662 15.6998C26.671 15.6998 27.1599 15.3919 27.5516 14.9956L27.2693 14.595C27.0629 14.7721 26.7257 15.0377 26.1821 15.0377C25.6006 14.9956 25.2298 14.595 25.0233 13.9793L27.5685 13.0517C27.4926 12.2127 27.1935 11.7278 26.8016 11.4199ZM25.9209 13.0518L24.9096 13.4481C24.8885 13.2711 24.8717 13.0939 24.8717 12.8746C24.8717 11.8584 25.4321 11.6814 25.6216 11.6814C25.9209 11.6392 26.1821 11.8162 26.2789 12.1704C26.3886 12.5669 26.3507 12.9211 25.9209 13.0518Z" fill="white"/>
<path d="M19.9247 24.5466L20.78 23.2436L23.8225 25.2338L22.967 26.541L19.9247 24.5466Z" fill="white"/>
<path d="M19.6423 24.0994L20.2323 23.197L24.0964 25.7312L23.5064 26.6336L19.6423 24.0994Z" fill="#9C824A"/>
<path d="M26.4182 28.6956L27.2736 27.3883L30.3159 29.3828L29.4605 30.69L26.4182 28.6956Z" fill="white"/>
<path d="M26.1357 28.2486L26.7257 27.3463L30.5899 29.8805L29.9999 30.7787L26.1357 28.2486Z" fill="#9C824A"/>
</svg>
