<svg width="22" height="20" viewBox="0 0 22 20" fill="none" xmlns="http://www.w3.org/2000/svg">
<g clip-path="url(#clip0)">
<path d="M7.71442 2.85697C6.60959 1.27911 4.43484 0.895641 2.85697 2.00047C1.27911 3.1053 0.895643 5.28006 2.00047 6.85792L9.20218 17.143C10.307 18.7209 12.4818 19.1044 14.0596 17.9995C15.6375 16.8947 16.021 14.7199 14.9161 13.1421L7.71442 2.85697Z" fill="white"/>
<path d="M15.0013 3.8369C15.759 3.30634 16.6964 3.09851 17.6074 3.25914C18.5183 3.41976 19.3281 3.93568 19.8587 4.6934C20.6015 5.7542 20.8924 7.06662 20.6676 8.34195C20.4427 9.61728 19.7204 10.751 18.6596 11.4938L16.9454 12.6941L14.1448 8.69435C13.6142 7.93663 13.4064 6.99918 13.567 6.08823C13.7276 5.17729 14.2435 4.36746 15.0013 3.8369V3.8369Z" fill="white"/>
</g>
<defs>
<clipPath id="clip0">
<rect width="22" height="20" fill="white"/>
</clipPath>
</defs>
</svg>
